# xmcd
#
# Track frame offsets:
#	150
#	14317
#	33300
#	48245
#	58672
#	68405
#
# Disc length: 1144 seconds
#
# Revision: 1
# Processed by: cddbd v1.5.2PL0 Copyright (c) Steve Scherf et al.
# Submitted via: audiograbber 1.83.01
#
DISCID=42047606
DTITLE=Various Artist - Three Point Promotions
DYEAR=1900
DGENRE=Gospel
TTITLE0=Ken Holloway - Little Church On The Bayou
TTITLE1=Premiers - I'll Praise The Lamb
TTITLE2=Gene Higgins - Only For The Weekend
TTITLE3=Randy Coward - Bent Up On The Devil
TTITLE4=Pennie Nickels - He's Taking The World By Love
TTITLE5=Brian Coffey - Say A Prayer
EXTD=
EXTT0=
EXTT1=
EXTT2=
EXTT3=
EXTT4=
EXTT5=
PLAYORDER=
